# xmcd
#
# Track frame offsets:
#	150
#	12700
#	27656
#	41682
#	58234
#	72818
#	87608
#	100056
#	113224
#	129493
#	147141
#	159785
#	176406
#	191363
#	209131
#
# Disc length: 3028 seconds
#
# Revision: 0
# Processed by: cddbd v1.5.2PL0 Copyright (c) Steve Scherf et al.
# Submitted via: EasyCDDAExtractor 11.1.0.1
#
DISCID=d90bd20f
DTITLE=Bosák Jiří - Pivní pěna - Lidovky T-Z [CD6)
DYEAR=2007
DGENRE=Country
TTITLE0=Teče potůček bublavý
TTITLE1=Ten tichý potůček
TTITLE2=To ta Hel'pa
TTITLE3=Tou píseckou branou
TTITLE4=Ty doudlebský stráně
TTITLE5=Ty musíš, má milá
TTITLE6=U potůčku
TTITLE7=U studánky seděla
TTITLE8=V pošumavském kraji
TTITLE9=Včera jsem byl u muziky
TTITLE10=Vezmi mě rybáři
TTITLE11=Vy staré Holešovice
TTITLE12=Vy stromečky
TTITLE13=Vzkázala mě Anička
TTITLE14=Za vodou (Vejtoňská)
EXTD=
EXTT0=
EXTT1=
EXTT2=
EXTT3=
EXTT4=
EXTT5=
EXTT6=
EXTT7=
EXTT8=
EXTT9=
EXTT10=
EXTT11=
EXTT12=
EXTT13=
EXTT14=
PLAYORDER=
